<svg width="25" height="24" viewBox="0 0 25 24" fill="none" xmlns="http://www.w3.org/2000/svg">
<path d="M9.56552 12.3205C9.42884 12.1839 9.20723 12.1839 9.07054 12.3205C8.93386 12.4572 8.93386 12.6788 9.07054 12.8155L9.56552 12.3205ZM12.5 15.75L12.2525 15.9975C12.3892 16.1342 12.6108 16.1342 12.7475 15.9975L12.5 15.75ZM15.9295 12.8155C16.0661 12.6788 16.0661 12.4572 15.9295 12.3205C15.7928 12.1839 15.5712 12.1839 15.4345 12.3205L15.9295 12.8155ZM12.85 8.25C12.85 8.0567 12.6933 7.9 12.5 7.9C12.3067 7.9 12.15 8.0567 12.15 8.25H12.85ZM21.15 12C21.15 16.7773 17.2773 20.65 12.5 20.65V21.35C17.6639 21.35 21.85 17.1639 21.85 12H21.15ZM12.5 20.65C7.72274 20.65 3.85 16.7773 3.85 12H3.15C3.15 17.1639 7.33614 21.35 12.5 21.35V20.65ZM3.85 12C3.85 7.22274 7.72274 3.35 12.5 3.35V2.65C7.33614 2.65 3.15 6.83614 3.15 12H3.85ZM12.5 3.35C17.2773 3.35 21.15 7.22274 21.15 12H21.85C21.85 6.83614 17.6639 2.65 12.5 2.65V3.35ZM9.07054 12.8155L12.2525 15.9975L12.7475 15.5025L9.56552 12.3205L9.07054 12.8155ZM12.7475 15.9975L15.9295 12.8155L15.4345 12.3205L12.2525 15.5025L12.7475 15.9975ZM12.15 8.25V15.75H12.85V8.25H12.15Z" fill="white"/>
</svg>
