<svg width="30" height="30" viewBox="0 0 30 30" fill="none" xmlns="http://www.w3.org/2000/svg">
<path d="M20.75 15C20.75 18.1756 18.1756 20.75 15 20.75V21.75C18.7279 21.75 21.75 18.7279 21.75 15H20.75ZM15 20.75C11.8244 20.75 9.25 18.1756 9.25 15H8.25C8.25 18.7279 11.2721 21.75 15 21.75V20.75ZM9.25 15C9.25 11.8244 11.8244 9.25 15 9.25V8.25C11.2721 8.25 8.25 11.2721 8.25 15H9.25ZM15 9.25C18.1756 9.25 20.75 11.8244 20.75 15H21.75C21.75 11.2721 18.7279 8.25 15 8.25V9.25ZM8.125 1.125H21.875V0.125H8.125V1.125ZM21.875 1.125C25.741 1.125 28.875 4.25901 28.875 8.125H29.875C29.875 3.70672 26.2933 0.125 21.875 0.125V1.125ZM28.875 8.125V21.875H29.875V8.125H28.875ZM28.875 21.875C28.875 25.741 25.741 28.875 21.875 28.875V29.875C26.2933 29.875 29.875 26.2933 29.875 21.875H28.875ZM21.875 28.875H8.125V29.875H21.875V28.875ZM8.125 28.875C4.25901 28.875 1.125 25.741 1.125 21.875H0.125C0.125 26.2933 3.70672 29.875 8.125 29.875V28.875ZM1.125 21.875V8.125H0.125V21.875H1.125ZM1.125 8.125C1.125 4.25901 4.25901 1.125 8.125 1.125V0.125C3.70672 0.125 0.125 3.70672 0.125 8.125H1.125Z" fill="#E56425"/>
</svg>
