<svg width="46" height="24" viewBox="0 0 46 24" fill="none" xmlns="http://www.w3.org/2000/svg">
<path d="M15.7856 3.553L17 0H12.598C7.01253 0.61788 5.71715 5.0977 5.76787 7.26028V12.049C5.28224 15.1384 2.52996 15.6017 1.21444 15.4474L0 19H4.70523C9.92668 18.1351 11.3332 14.0056 11.3839 12.049V11.1222V6.79668C11.6268 3.95465 14.4197 3.45002 15.7856 3.553Z" fill="#E56425"/>
<path d="M11.574 19L13.534 9.2H15.354L13.702 17.46H18.826L18.518 19H11.574ZM23.0785 19.098C22.4718 19.098 21.9165 18.9673 21.4125 18.706C20.9178 18.4447 20.5212 18.0713 20.2225 17.586C19.9332 17.0913 19.7885 16.4987 19.7885 15.808C19.7885 15.1733 19.8912 14.59 20.0965 14.058C20.3112 13.526 20.6098 13.064 20.9925 12.672C21.3752 12.28 21.8185 11.9767 22.3225 11.762C22.8358 11.5473 23.3958 11.44 24.0025 11.44C24.6278 11.44 25.1645 11.552 25.6125 11.776C26.0698 12 26.4152 12.3407 26.6485 12.798C26.8818 13.246 26.9892 13.806 26.9705 14.478C26.9518 15.402 26.7838 16.214 26.4665 16.914C26.1492 17.6047 25.7058 18.1413 25.1365 18.524C24.5672 18.9067 23.8812 19.098 23.0785 19.098ZM23.5265 17.6C24.0305 17.6 24.4738 17.4833 24.8565 17.25C25.2392 17.0073 25.5425 16.676 25.7665 16.256C25.9905 15.836 26.1025 15.3507 26.1025 14.8C26.1025 14.2213 25.9298 13.764 25.5845 13.428C25.2392 13.092 24.7538 12.924 24.1285 12.924C23.6338 12.924 23.1905 13.0453 22.7985 13.288C22.4158 13.5213 22.1125 13.848 21.8885 14.268C21.6645 14.688 21.5525 15.1733 21.5525 15.724C21.5525 16.3027 21.7252 16.76 22.0705 17.096C22.4158 17.432 22.9012 17.6 23.5265 17.6ZM25.3605 19L25.6965 17.292L26.1725 15.304L26.4105 13.302L26.7605 11.524H28.5105L27.0265 19H25.3605ZM29.3162 19L31.3882 8.612H33.1382L32.2142 13.26L31.6682 15.206L31.3882 16.97L30.9822 19H29.3162ZM33.8382 19.098C33.2222 19.098 32.6902 18.9907 32.2422 18.776C31.7942 18.552 31.4488 18.2253 31.2062 17.796C30.9635 17.3667 30.8422 16.8347 30.8422 16.2C30.8422 15.5 30.9262 14.8607 31.0942 14.282C31.2715 13.694 31.5282 13.19 31.8642 12.77C32.2095 12.3407 32.6202 12.014 33.0962 11.79C33.5815 11.5567 34.1322 11.44 34.7482 11.44C35.3642 11.44 35.9195 11.5707 36.4142 11.832C36.9088 12.084 37.3008 12.4573 37.5902 12.952C37.8888 13.4373 38.0382 14.0253 38.0382 14.716C38.0382 15.3507 37.9308 15.934 37.7162 16.466C37.5108 16.998 37.2168 17.46 36.8342 17.852C36.4515 18.244 36.0035 18.552 35.4902 18.776C34.9862 18.9907 34.4355 19.098 33.8382 19.098ZM33.6982 17.6C34.2022 17.6 34.6455 17.4833 35.0282 17.25C35.4108 17.0073 35.7142 16.676 35.9382 16.256C36.1622 15.836 36.2742 15.3507 36.2742 14.8C36.2742 14.2213 36.1015 13.764 35.7562 13.428C35.4108 13.092 34.9255 12.924 34.3002 12.924C33.8055 12.924 33.3622 13.0453 32.9702 13.288C32.5875 13.5213 32.2842 13.848 32.0602 14.268C31.8362 14.688 31.7242 15.1733 31.7242 15.724C31.7242 16.3027 31.8968 16.76 32.2422 17.096C32.5875 17.432 33.0728 17.6 33.6982 17.6ZM41.4618 19.098C40.8085 19.098 40.1971 19.0187 39.6278 18.86C39.0585 18.7013 38.6198 18.51 38.3118 18.286L39.0398 16.942C39.3478 17.1567 39.7305 17.334 40.1878 17.474C40.6545 17.6047 41.1398 17.67 41.6438 17.67C42.2225 17.67 42.6471 17.5907 42.9178 17.432C43.1978 17.2733 43.3378 17.054 43.3378 16.774C43.3378 16.5687 43.2398 16.4147 43.0438 16.312C42.8478 16.2093 42.5958 16.1253 42.2878 16.06C41.9891 15.9947 41.6625 15.9247 41.3078 15.85C40.9625 15.7753 40.6358 15.6727 40.3278 15.542C40.0291 15.4113 39.7818 15.22 39.5858 14.968C39.3898 14.716 39.2918 14.38 39.2918 13.96C39.2918 13.428 39.4411 12.9753 39.7398 12.602C40.0385 12.2287 40.4538 11.944 40.9858 11.748C41.5271 11.5427 42.1478 11.44 42.8478 11.44C43.3518 11.44 43.8465 11.496 44.3318 11.608C44.8171 11.72 45.2185 11.8787 45.5358 12.084L44.8918 13.428C44.5558 13.2133 44.1918 13.064 43.7998 12.98C43.4171 12.896 43.0438 12.854 42.6798 12.854C42.1105 12.854 41.6858 12.9427 41.4058 13.12C41.1351 13.288 40.9998 13.5027 40.9998 13.764C40.9998 13.9693 41.0978 14.128 41.2938 14.24C41.4898 14.352 41.7371 14.4453 42.0358 14.52C42.3438 14.5853 42.6705 14.6553 43.0158 14.73C43.3705 14.7953 43.6971 14.8933 43.9958 15.024C44.3038 15.1547 44.5558 15.346 44.7518 15.598C44.9478 15.8407 45.0458 16.1673 45.0458 16.578C45.0458 17.1193 44.8918 17.5813 44.5838 17.964C44.2851 18.3373 43.8651 18.622 43.3238 18.818C42.7825 19.0047 42.1618 19.098 41.4618 19.098Z" fill="#E56425"/>
</svg>
