<svg width="30" height="30" viewBox="0 0 30 30" fill="none" xmlns="http://www.w3.org/2000/svg">
<path d="M10.716 18.4493L18.4499 10.7153M16.5162 20.3837L13.2937 23.6062C12.2681 24.6315 10.8772 25.2074 9.42692 25.2073C7.97668 25.2071 6.58587 24.631 5.56039 23.6055C4.53492 22.58 3.95876 21.1892 3.95863 19.739C3.95851 18.2887 4.53443 16.8978 5.55973 15.8722L8.78222 12.6497M20.3837 16.5161L23.6062 13.2936C24.6315 12.268 25.2075 10.8771 25.2073 9.42684C25.2072 7.9766 24.6311 6.58579 23.6056 5.56032C22.5801 4.53484 21.1893 3.95868 19.7391 3.95856C18.2888 3.95843 16.8979 4.53436 15.8723 5.55966L12.6498 8.78214" stroke="#E56425" stroke-width="0.7" stroke-linecap="round" stroke-linejoin="round"/>
</svg>
