<svg width="30" height="30" viewBox="0 0 30 30" fill="none" xmlns="http://www.w3.org/2000/svg">
<path d="M13.75 12.5001V22.5001M13.75 16.8751C13.75 15.7148 14.2109 14.602 15.0314 13.7816C15.8519 12.9611 16.9647 12.5001 18.125 12.5001C19.2853 12.5001 20.3981 12.9611 21.2186 13.7816C22.0391 14.602 22.5 15.7148 22.5 16.8751V22.5001M8.75 12.5001V22.5001M2.5 1.25H27.5C28.1904 1.25 28.75 1.80964 28.75 2.5V27.5C28.75 28.1904 28.1904 28.75 27.5 28.75H2.5C1.80964 28.75 1.25 28.1904 1.25 27.5V2.5C1.25 1.80964 1.80964 1.25 2.5 1.25Z" stroke="#E56425" stroke-linecap="round" stroke-linejoin="round"/>
</svg>
