<svg width="18" height="18" viewBox="0 0 18 18" fill="none" xmlns="http://www.w3.org/2000/svg">
<path d="M17.3121 11.3109C15.8398 11.72 14.2853 11.7308 12.8076 11.3421C11.3298 10.9534 9.98171 10.1793 8.90122 9.0988C7.82073 8.01831 7.04657 6.67026 6.6579 5.19247C6.26923 3.71468 6.28 2.16019 6.6891 0.687927L6.68934 0.688C5.23722 1.09197 3.91629 1.86936 2.85813 2.94275C1.79998 4.01614 1.04155 5.34805 0.658385 6.8058C0.275221 8.26355 0.280703 9.79625 0.674285 11.2512C1.06787 12.7062 1.83581 14.0326 2.90161 15.0984C3.96741 16.1642 5.29387 16.9322 6.74885 17.3257C8.20382 17.7193 9.73652 17.7248 11.1943 17.3416C12.652 16.9584 13.9839 16.2 15.0573 15.1418C16.1307 14.0836 16.9081 12.7627 17.312 11.3106L17.3121 11.3109Z" stroke="#E56425" stroke-width="0.7" stroke-linecap="round" stroke-linejoin="round"/>
</svg>
