<svg width="34" height="12" viewBox="0 0 34 12" fill="none" xmlns="http://www.w3.org/2000/svg">
<path d="M10.7498 16.0738L24.7994 28.4374C24.9619 28.5805 25.1588 28.6788 25.3709 28.7229C25.5829 28.7669 25.8027 28.7552 26.0088 28.6887C26.2149 28.6223 26.4001 28.5034 26.5465 28.3438C26.6928 28.1842 26.7952 27.9893 26.8436 27.7783L32.7207 2.13255C32.7715 1.91082 32.7609 1.67942 32.6899 1.4633C32.6189 1.24717 32.4903 1.05452 32.3179 0.906088C32.1455 0.757659 31.9359 0.659085 31.7116 0.620987C31.4874 0.58289 31.257 0.606715 31.0452 0.689893L2.20822 12.0187C1.9569 12.1174 1.7443 12.2949 1.60225 12.5245C1.46019 12.7542 1.39632 13.0236 1.42017 13.2926C1.44403 13.5616 1.55434 13.8156 1.7346 14.0166C1.91485 14.2177 2.15536 14.3549 2.42014 14.4079L10.7498 16.0738ZM10.7498 16.0738L10.7498 26.2475C10.7498 26.4947 10.8231 26.7364 10.9605 26.942C11.0978 27.1475 11.293 27.3077 11.5214 27.4023C11.7498 27.497 12.0012 27.5217 12.2437 27.4735C12.4861 27.4252 12.7089 27.3062 12.8837 27.1314L17.7665 22.2485M10.7498 16.0738L32.0173 0.713923" stroke="#E56425" stroke-linecap="round" stroke-linejoin="round"/>
</svg>
