<svg width="30" height="30" viewBox="0 0 30 30" fill="none" xmlns="http://www.w3.org/2000/svg">
<path d="M5.17586 20.1658C3.81695 17.875 3.34105 15.1669 3.83752 12.5501C4.33399 9.9332 5.76868 7.5876 7.87219 5.95369C9.97569 4.31978 12.6033 3.50997 15.2616 3.67632C17.92 3.84267 20.4261 4.97374 22.3096 6.85714C24.193 8.74053 25.324 11.2467 25.4904 13.905C25.6568 16.5634 24.847 19.191 23.2131 21.2945C21.5792 23.398 19.2336 24.8327 16.6167 25.3292C13.9999 25.8257 11.2918 25.3498 9.001 23.9909L5.22342 25.0701C5.06713 25.1148 4.90174 25.1168 4.74439 25.076C4.58704 25.0353 4.44346 24.9531 4.32852 24.8382C4.21358 24.7233 4.13147 24.5797 4.0907 24.4223C4.04993 24.265 4.05197 24.0996 4.09663 23.9433L5.17586 20.1658Z" stroke="#E56425" stroke-width="0.7" stroke-linecap="round" stroke-linejoin="round"/>
<path d="M17.3307 20.9635C16.1316 20.9652 14.9439 20.7303 13.8357 20.2722C12.7276 19.8141 11.7207 19.1418 10.8728 18.2939C10.0248 17.446 9.35258 16.4391 8.89449 15.331C8.43639 14.2228 8.20146 13.0351 8.20316 11.836C8.20588 10.9919 8.54326 10.1834 9.1413 9.58783C9.73934 8.99221 10.5492 8.65812 11.3933 8.65884C11.5317 8.65884 11.6677 8.69544 11.7874 8.76492C11.9072 8.83441 12.0064 8.93432 12.0751 9.05452L13.4071 11.3855C13.4874 11.5261 13.5288 11.6855 13.5271 11.8474C13.5254 12.0093 13.4806 12.1678 13.3973 12.3066L12.3276 14.0895C12.8779 15.3108 13.8558 16.2888 15.0772 16.8391L16.86 15.7694C16.9989 15.6861 17.1574 15.6413 17.3193 15.6396C17.4812 15.6379 17.6406 15.6793 17.7812 15.7596L20.1122 17.0916C20.2324 17.1603 20.3323 17.2595 20.4018 17.3793C20.4712 17.499 20.5078 17.635 20.5078 17.7734C20.5054 18.6165 20.1703 19.4246 19.5754 20.0219C18.9804 20.6193 18.1738 20.9577 17.3307 20.9635Z" stroke="#E56425" stroke-width="0.7" stroke-linecap="round" stroke-linejoin="round"/>
</svg>
